<svg viewBox="0 0 1024 1024" xmlns="http://www.w3.org/2000/svg">
	<title>Linkedin's icon</title>

	<path d="m873.87 874.54v-0.0299h0.18133v-265.55c0-129.91-27.968-229.99-179.85-229.99-73.012 0-122.01 40.066-142.01 78.051h-2.112v-65.923h-144v483.43h149.95v-239.38c0-63.026 11.948-123.97 89.998-123.97 76.903 0 78.051 71.926 78.051 128.01v235.37z" />
	<path d="m161.9 391.11h150.13v483.43h-150.13z" />
	<path d="m236.9 150.45c-48.001 0-86.951 38.95-86.951 86.951 0 48.001 38.95 87.766 86.951 87.766 48.001 0 86.951-39.765 86.951-87.766-0.02986-48.001-38.98-86.951-86.951-86.951z" />
</svg>
