<?xml version="1.0" encoding="UTF-8"?><!DOCTYPE svg PUBLIC "-//W3C//DTD SVG 1.1//EN" "http://www.w3.org/Graphics/SVG/1.1/DTD/svg11.dtd"><svg xmlns="http://www.w3.org/2000/svg" xmlns:xlink="http://www.w3.org/1999/xlink"><defs/><symbol id="github" viewBox="0 0 1024 1024">
	<title>Github&apos;s icon</title>
	<path d="m512 157.75c-204.23 0-369.65 162.64-369.65 363.24 0 160.52 105.9 296.64 252.75 344.63 18.482 3.4192 25.259-7.8241 25.259-17.466 0-8.6251-0.30805-31.482-0.46207-61.762-102.82 21.902-124.51-48.732-124.51-48.732-16.819-41.924-41.123-53.137-41.123-53.137-33.484-22.518 2.5875-22.056 2.5875-22.056 37.119 2.5259 56.618 37.427 56.618 37.427 32.96 55.539 86.528 39.491 107.66 30.219 3.3268-23.503 12.845-39.491 23.411-48.578-82.092-9.0871-168.37-40.322-168.37-179.49 0-39.645 14.324-72.05 38.043-97.463-4.1585-9.1796-16.634-46.113 3.2344-96.139 0 0 30.958-9.734 101.65 37.242 29.572-8.0706 60.992-12.075 92.412-12.26 31.42 0.18483 62.84 4.1893 92.412 12.26 70.233-46.976 101.19-37.242 101.19-37.242 19.869 50.026 7.3929 86.959 3.6964 96.139 23.565 25.413 37.889 57.819 37.889 97.463 0 139.54-86.405 170.25-168.65 179.19 12.938 10.905 24.951 33.176 24.951 67.214 0 48.609-0.46205 87.668-0.46205 99.466 0 9.5184 6.4688 20.885 25.413 17.25 147.89-47.684 253.7-183.9 253.7-344.17 0-200.59-165.51-363.24-369.65-363.24z"/>
</symbol><symbol id="linkedin" viewBox="0 0 1024 1024">
	<path d="m873.87 874.54v-0.0299h0.18133v-265.55c0-129.91-27.968-229.99-179.85-229.99-73.012 0-122.01 40.066-142.01 78.051h-2.112v-65.923h-144v483.43h149.95v-239.38c0-63.026 11.948-123.97 89.998-123.97 76.903 0 78.051 71.926 78.051 128.01v235.37z" style="stroke-width:30.171"/>
	<path d="m161.9 391.11h150.13v483.43h-150.13z" style="stroke-width:30.171"/>
	<path d="m236.9 150.45c-48.001 0-86.951 38.95-86.951 86.951 0 48.001 38.95 87.766 86.951 87.766 48.001 0 86.951-39.765 86.951-87.766-0.02986-48.001-38.98-86.951-86.951-86.951z" style="stroke-width:30.171"/>
</symbol><symbol id="twitter" viewBox="0 0 1024 1024">
	<title>Twitter&apos;s icon</title>
	<path d="m909.35 265.59c-29.553 12.964-61.043 21.556-93.875 25.729 33.775-20.166 59.553-51.855 71.673-90.05-31.49 18.775-66.259 32.037-103.31 39.437-29.901-31.838-72.517-51.557-119.01-51.557-90.199 0-162.82 73.212-162.82 162.96 0 12.914 1.0927 25.331 3.7749 37.153-135.45-6.606-255.3-71.524-335.81-170.42-14.056 24.388-22.301 52.302-22.301 82.352 0 56.424 29.056 106.44 72.368 135.4-26.176-0.49669-51.855-8.0961-73.61-20.066v1.7881c0 79.173 56.474 144.93 130.53 160.08-13.262 3.6258-27.715 5.3643-42.716 5.3643-10.431 0-20.96-0.59603-30.845-2.7815 21.109 64.52 81.011 111.95 152.24 113.49-55.431 43.361-125.81 69.487-202 69.487-13.361 0-26.176-0.59603-38.99-2.2351 72.169 46.54 157.7 73.113 249.94 73.113 299.8 0 463.71-248.35 463.71-463.61 0-7.202-0.24835-14.156-0.59604-21.06 32.335-22.947 59.504-51.606 81.656-84.587z"/>
</symbol></svg>