<svg viewBox="0 0 1024 1024" xmlns="http://www.w3.org/2000/svg">
	<title>Github's icon</title>
	<path d="m512 157.75c-204.23 0-369.65 162.64-369.65 363.24 0 160.52 105.9 296.64 252.75 344.63 18.482 3.4192 25.259-7.8241 25.259-17.466 0-8.6251-0.30805-31.482-0.46207-61.762-102.82 21.902-124.51-48.732-124.51-48.732-16.819-41.924-41.123-53.137-41.123-53.137-33.484-22.518 2.5875-22.056 2.5875-22.056 37.119 2.5259 56.618 37.427 56.618 37.427 32.96 55.539 86.528 39.491 107.66 30.219 3.3268-23.503 12.845-39.491 23.411-48.578-82.092-9.0871-168.37-40.322-168.37-179.49 0-39.645 14.324-72.05 38.043-97.463-4.1585-9.1796-16.634-46.113 3.2344-96.139 0 0 30.958-9.734 101.65 37.242 29.572-8.0706 60.992-12.075 92.412-12.26 31.42 0.18483 62.84 4.1893 92.412 12.26 70.233-46.976 101.19-37.242 101.19-37.242 19.869 50.026 7.3929 86.959 3.6964 96.139 23.565 25.413 37.889 57.819 37.889 97.463 0 139.54-86.405 170.25-168.65 179.19 12.938 10.905 24.951 33.176 24.951 67.214 0 48.609-0.46205 87.668-0.46205 99.466 0 9.5184 6.4688 20.885 25.413 17.25 147.89-47.684 253.7-183.9 253.7-344.17 0-200.59-165.51-363.24-369.65-363.24z"/>
</svg>
