<svg viewBox="0 0 1024 1024" xmlns="http://www.w3.org/2000/svg">
	<title>Twitter's icon</title>
	<path d="m909.35 265.59c-29.553 12.964-61.043 21.556-93.875 25.729 33.775-20.166 59.553-51.855 71.673-90.05-31.49 18.775-66.259 32.037-103.31 39.437-29.901-31.838-72.517-51.557-119.01-51.557-90.199 0-162.82 73.212-162.82 162.96 0 12.914 1.0927 25.331 3.7749 37.153-135.45-6.606-255.3-71.524-335.81-170.42-14.056 24.388-22.301 52.302-22.301 82.352 0 56.424 29.056 106.44 72.368 135.4-26.176-0.49669-51.855-8.0961-73.61-20.066v1.7881c0 79.173 56.474 144.93 130.53 160.08-13.262 3.6258-27.715 5.3643-42.716 5.3643-10.431 0-20.96-0.59603-30.845-2.7815 21.109 64.52 81.011 111.95 152.24 113.49-55.431 43.361-125.81 69.487-202 69.487-13.361 0-26.176-0.59603-38.99-2.2351 72.169 46.54 157.7 73.113 249.94 73.113 299.8 0 463.71-248.35 463.71-463.61 0-7.202-0.24835-14.156-0.59604-21.06 32.335-22.947 59.504-51.606 81.656-84.587z"/>
</svg>
